<svg width="300" height="248" viewBox="0 0 300 248" fill="none" xmlns="http://www.w3.org/2000/svg">
<g clip-path="url(#clip0_72_8)">
<path fill-rule="evenodd" clip-rule="evenodd" d="M123.856 72.0103V72.9276L124.315 73.3863C124.773 73.3863 125.691 73.3863 127.984 76.1383C129.819 78.8902 129.819 82.1009 129.819 82.1009C127.067 80.7249 124.315 79.8076 123.397 81.1836C123.397 81.1836 122.021 91.2742 123.856 96.7781C126.149 102.282 127.984 102.741 127.984 102.741L129.819 94.0262C129.819 94.0262 129.36 101.365 131.653 106.869C133.947 112.373 134.405 112.831 134.405 112.831L133.947 102.741C133.947 102.741 136.24 110.997 137.616 112.373C138.992 114.207 139.909 114.207 139.909 114.207L141.285 111.914C141.285 111.914 141.744 114.666 146.331 118.335C150.459 121.546 150.917 121.087 150.917 121.087C150.917 121.087 155.504 118.794 157.339 116.959C159.173 114.666 159.632 111.914 159.632 111.914L161.467 115.125C161.467 115.125 164.677 110.538 165.136 107.327C166.053 103.658 166.053 102.741 166.053 102.741C166.053 102.741 166.512 103.658 166.971 107.327C166.971 110.997 166.971 110.997 166.971 110.997C166.971 110.997 170.64 107.327 171.557 102.741C172.016 98.1541 171.557 92.1915 171.557 92.1915C171.557 92.1915 172.933 94.4848 172.933 98.1541C172.933 101.365 173.851 102.282 173.851 102.282C173.851 102.282 175.227 100.447 175.685 97.2368C176.603 93.5675 176.144 92.1915 176.144 92.1915L178.437 94.0262L177.979 89.8982C179.813 89.8982 181.648 88.9809 182.565 87.6049C183.941 86.2289 184.858 84.8529 184.858 82.5596C184.858 80.7249 183.941 78.8902 182.565 77.5142C181.648 76.1383 179.813 75.6796 177.52 75.6796V77.5142C179.355 77.5142 180.272 77.9729 181.189 78.8902C182.565 79.8076 183.024 81.1836 183.024 82.5596C183.024 83.9355 182.565 85.3115 181.189 86.2289C180.731 87.1462 179.355 87.6049 177.979 88.0635V85.7702L177.52 80.2662C177.061 83.4769 175.227 84.3942 172.475 84.3942C172.475 83.4769 172.475 83.0182 172.475 82.5596C172.475 82.1009 172.475 82.1009 172.475 81.6422C172.475 80.2662 172.933 77.9729 174.309 76.5969L177.52 72.9276L177.979 71.5516C175.685 65.1303 171.099 65.589 167.429 66.0476C157.339 67.8823 155.045 60.5437 155.045 60.5437L167.888 58.2504L161.008 54.1224C156.421 55.4984 151.376 56.4157 147.707 57.333C148.165 59.1677 147.707 61.461 146.789 63.7543C146.331 66.0476 144.496 68.341 142.203 69.717C137.157 72.9276 130.277 72.4689 124.315 71.0929C124.315 71.5516 124.315 71.5516 124.315 71.5516C124.315 72.0103 123.856 72.0103 123.856 72.0103ZM115.6 66.5063H118.811C116.976 69.717 114.224 77.5142 113.307 84.3942L111.472 76.5969L105.051 82.1009C106.427 75.6796 107.803 70.6343 115.6 66.5063ZM211.002 62.3783H210.544C209.168 62.837 198.16 64.213 195.408 62.837C192.656 61.9197 192.197 61.0023 192.197 61.0023L196.325 60.5437C196.325 60.5437 198.618 61.0023 210.544 62.3783C198.16 49.0771 188.986 57.7917 162.843 33.0238C161.008 37.1518 144.955 40.3624 142.203 31.1892C141.285 33.0238 140.368 34.3998 139.451 35.3171C138.533 34.8585 137.616 33.9411 136.699 33.0238C135.781 31.1892 135.781 31.1892 135.781 31.1892C135.781 31.1892 134.405 33.9411 135.781 37.1518C133.947 36.2345 132.112 35.3171 131.195 33.9411C129.36 31.6478 129.819 31.6478 129.819 31.6478C129.819 31.6478 127.984 35.7758 130.277 40.3624C129.36 39.9038 128.443 38.9865 127.984 38.0691C126.149 36.2345 126.149 35.7758 126.149 35.7758C126.149 35.7758 124.773 40.3624 127.067 45.4078C117.894 49.5357 106.886 50.4531 90.3737 62.3783C102.299 62.3783 104.592 62.3783 104.592 62.3783L108.72 63.2957C108.72 63.2957 107.803 64.213 105.051 64.6716C102.758 65.589 92.667 63.2957 90.3737 62.3783H89.915C89.4563 61.0023 89.4563 59.1677 89.915 57.333C98.6296 52.7464 112.39 45.4078 116.059 44.0318C120.645 41.2798 123.397 38.9865 123.397 38.9865L125.232 30.7305L127.525 32.1065L128.443 27.0612C128.443 27.0612 130.736 30.2718 132.571 29.8132C134.864 29.8132 136.699 26.1439 137.157 26.1439C138.533 26.6025 135.323 16.9706 135.781 9.17328C135.781 9.17328 104.134 29.8132 95.8776 38.5278C95.8776 37.6105 96.3363 37.1518 96.3363 37.1518C108.262 22.0159 129.36 13.3013 140.368 0C134.864 34.8585 168.805 38.9865 165.136 0C176.603 14.2186 195.866 27.0612 205.957 41.7384C206.874 42.1971 207.333 43.5731 207.792 44.4904C206.874 43.5731 205.957 42.1971 205.04 40.8211C199.077 33.4825 167.888 9.17328 167.888 9.17328C168.347 16.5119 166.512 26.1439 163.76 31.1892C177.52 38.0691 175.227 37.6105 186.693 44.0318C197.242 49.0771 205.498 55.957 210.085 60.5437C210.544 61.461 210.544 61.9197 211.002 62.3783ZM131.653 83.4769L142.203 78.4316L142.661 75.2209L144.496 74.7623L145.872 73.8449L150.917 72.0103L155.963 73.8449L157.797 74.7623L159.632 75.2209L160.091 78.8902L166.971 81.6422L170.64 83.4769C170.64 83.9355 170.64 83.9355 170.64 84.3942L165.136 88.0635C165.136 88.0635 161.925 82.5596 154.128 83.0182L150.917 82.1009L144.955 83.9355C144.955 83.0182 146.331 81.1836 141.744 84.3942C133.947 89.4395 133.947 92.1915 133.947 92.1915C133.947 92.1915 133.947 88.9809 134.864 87.6049C135.323 86.6875 133.488 84.8529 131.653 83.4769ZM147.707 91.2742L151.835 94.0262L155.045 91.7328L147.707 91.2742ZM140.368 92.6502C140.368 92.6502 141.285 89.4395 142.661 88.0635C144.496 86.6875 147.707 85.7702 150.917 85.7702C154.128 86.2289 158.256 86.2289 160.549 89.4395C162.843 92.6502 162.384 93.5675 162.384 93.5675C162.384 93.5675 159.632 88.5222 153.669 88.9809C148.165 89.8982 146.331 87.1462 140.368 92.6502ZM157.797 52.2877L151.835 48.6184L137.616 56.4157C139.451 55.957 141.285 55.4984 142.661 55.4984C146.789 54.581 152.293 53.6637 157.797 52.2877Z" fill="#FEFEFE"/>
<path fill-rule="evenodd" clip-rule="evenodd" d="M194.49 170.623L197.701 176.586L194.49 182.09L191.28 176.586L194.49 170.623ZM256.41 167.871L260.997 165.578V150.901C260.997 150.901 255.493 152.277 249.53 153.653V173.375L267.418 179.338L267.877 199.519H242.65C242.65 199.519 242.65 190.346 242.65 188.97H248.613V193.556H260.538V183.466L243.568 177.962V148.149C248.613 147.69 261.455 144.479 266.959 143.103V171.54L256.41 167.871ZM280.719 199.519L278.426 196.767L280.719 180.714L290.81 180.255L293.103 199.519H299.983L285.765 94.4848L271.087 199.519H280.719ZM34.4166 199.519H37.6273L34.8753 196.767L38.0859 177.044L47.7179 178.42L50.4699 199.519H57.8085L46.8006 133.93L43.1313 132.554L40.3793 131.637C39.9206 133.93 39.4619 136.223 39.0033 138.975L28.454 199.519H31.6646H34.4166ZM67.4405 199.519H69.7338L67.4405 196.308L66.9818 175.668L73.8618 176.586C75.2377 176.586 76.1551 177.044 76.6137 177.044C77.5311 177.503 77.9897 177.503 78.4484 177.962C78.4484 178.42 78.9071 179.338 78.9071 179.796C78.9071 180.714 78.9071 192.18 78.9071 193.098C78.9071 194.932 78.9071 195.85 79.3657 196.767C79.3657 197.684 79.3657 198.602 79.8244 199.519H87.163V197.684C86.7044 197.226 86.2457 197.226 85.787 196.767C85.3284 196.308 85.3284 196.308 85.3284 195.391C85.3284 194.474 85.3284 181.631 85.3284 180.255C85.3284 177.044 84.411 176.127 81.659 174.751C83.035 174.292 84.8697 173.834 85.3284 170.623V145.855C77.0724 143.562 69.2751 141.269 61.0192 138.975V199.519H64.2298H67.4405ZM125.691 199.519H127.984L126.149 197.226L128.443 186.218H138.533L140.827 199.519H147.707L137.616 153.653L129.819 153.194L119.728 199.519H122.021H125.691ZM156.88 199.519H158.715L156.88 197.226V182.09L163.301 182.548C164.677 182.548 165.595 182.548 166.053 183.007C166.971 183.007 167.429 183.466 167.429 183.924C167.888 184.383 168.347 184.842 168.347 185.759C168.347 186.218 168.347 193.098 168.347 194.015C168.347 195.85 168.347 195.85 168.805 196.767C168.805 197.684 168.805 198.602 169.264 199.519H176.144V198.602C175.685 198.602 175.685 198.143 175.227 198.143C175.227 197.684 175.227 197.684 174.768 197.226C174.768 196.767 174.768 195.85 174.768 195.391C174.768 194.474 174.768 194.474 174.768 193.098C174.768 191.722 174.768 184.842 174.309 183.924C174.309 183.007 173.851 182.548 173.851 182.09C173.392 181.631 172.933 181.172 172.475 180.714C172.016 180.255 171.557 180.255 170.64 179.796C172.475 179.338 173.392 178.42 174.309 177.044C175.227 175.668 174.768 164.202 174.768 162.826C174.768 160.074 174.309 154.111 174.309 154.111C166.053 154.111 158.715 154.111 150.459 154.111V199.519H152.752H156.88ZM231.184 171.082L227.056 169.706L231.184 167.871V155.946C227.973 156.863 223.845 157.322 219.717 157.78V175.668L238.064 181.631C238.064 181.631 238.064 185.3 238.064 186.676C238.064 188.052 238.064 199.519 238.064 199.519H213.296C213.296 199.519 213.296 190.346 213.296 188.97H219.258C219.258 189.428 219.258 193.556 219.258 193.556H231.184C231.184 193.556 231.184 187.135 231.184 186.218L214.213 180.255V152.277C216.965 152.277 227.973 150.901 237.605 149.525C237.605 149.525 237.146 166.495 237.605 173.375L231.184 171.54V171.082ZM5.97945 157.78L11.9421 158.698C14.2354 159.156 17.4461 157.78 17.4461 154.111V128.885C13.3181 127.05 9.1901 124.298 5.97945 122.005V157.78ZM0.0168152 113.29V100.906C3.68613 112.831 11.0248 118.794 24.326 125.674V155.029C23.8674 159.615 22.0327 160.991 20.198 161.45C23.4087 162.826 24.7847 164.66 24.7847 169.247V199.519H0.0168152V117.418V113.29ZM5.97945 193.556H18.822C18.822 193.556 18.822 177.503 18.3634 169.247C18.3634 167.412 17.9047 166.036 14.2354 165.119L5.97945 163.743V193.556ZM39.0033 171.54L46.8006 172.458L43.5899 147.69L39.0033 171.54ZM74.3204 171.082C76.6137 171.54 78.9071 170.623 78.9071 168.33L79.3657 149.983C79.3657 149.983 67.8991 146.773 66.9818 146.773V170.164L74.3204 171.082ZM98.171 173.834C98.171 173.834 101.84 174.292 103.675 174.751C106.886 174.751 109.179 173.834 109.638 170.623V156.863C105.51 155.946 101.84 155.029 98.171 154.57V173.834ZM98.171 193.556H110.096C110.096 193.556 110.555 185.759 110.555 184.383C110.555 181.631 108.72 180.255 105.968 180.255L98.171 179.338V193.556ZM92.2083 147.69C100.006 149.066 107.344 150.901 115.142 152.277V171.999C115.142 175.21 113.766 176.127 111.931 177.044C113.307 177.503 114.224 177.962 115.142 179.338C116.059 180.255 116.059 181.631 116.059 183.007V199.519H92.2083V147.69ZM129.819 180.714H137.616L133.947 161.45H133.488L129.819 180.714ZM164.219 177.503C166.053 177.503 166.971 177.044 167.888 176.586C168.805 175.668 168.347 164.66 168.347 163.284C168.347 162.826 168.347 159.615 168.347 159.615C164.677 159.615 160.091 159.156 156.88 159.156V177.044L164.219 177.503ZM282.095 174.292L289.434 173.834L285.765 135.306L282.095 174.292ZM180.272 176.586C180.272 170.164 180.272 164.202 180.731 162.826C181.189 160.991 182.107 159.615 183.024 158.239C183.941 156.863 184.858 155.946 185.776 155.487C189.904 152.735 192.656 151.359 194.49 146.773C196.325 151.359 199.536 152.735 203.205 155.487C204.122 155.946 205.498 156.863 205.957 158.239C206.874 159.615 207.792 160.991 208.25 162.826C208.709 164.202 209.168 170.164 209.168 176.586C209.168 182.548 208.709 188.97 208.25 190.346C207.792 192.18 206.874 193.556 205.957 194.474C205.498 195.85 204.122 196.767 203.205 197.684C199.077 200.436 196.325 201.812 194.49 205.94C192.656 201.812 189.904 199.978 185.776 197.684C184.858 196.767 183.941 195.85 183.024 194.474C182.107 193.556 181.189 192.18 180.731 190.346C180.272 188.97 180.272 182.548 180.272 176.586ZM194.49 155.487C192.656 157.322 188.528 160.074 187.152 163.743C186.693 164.66 186.693 170.623 186.234 176.586C186.693 182.548 186.693 188.052 187.152 189.428C188.528 193.098 192.197 194.932 194.49 197.226C196.784 194.932 200.453 193.098 201.829 189.428C202.288 188.052 202.746 182.548 202.746 176.586C202.746 170.623 202.288 164.66 201.829 163.743C200.453 160.074 196.325 157.322 194.49 155.487Z" fill="#FEFEFE"/>
<path d="M137.616 222.452V225.204H135.323C133.947 228.873 133.029 232.543 131.653 236.212C130.277 239.423 129.36 243.092 127.984 246.761H123.856C122.939 244.468 122.48 242.633 121.563 240.34C121.104 238.505 120.645 236.212 119.728 233.919L115.6 246.761H111.014L104.592 225.204H101.84V222.452H107.803L113.307 241.716C114.224 239.423 114.683 237.129 115.6 234.836C116.518 232.543 116.976 230.249 117.894 227.956L116.059 222.452H120.187L125.691 241.716L132.112 222.452H137.616Z" fill="#FEFEFE"/>
<path d="M146.331 247.22C145.413 247.22 144.496 247.22 143.12 246.761C142.203 246.303 141.285 245.844 140.368 245.385C139.451 244.468 138.992 243.551 138.533 242.633C137.616 241.257 137.616 239.881 137.616 238.505V235.753C137.616 233.919 137.616 232.543 138.075 231.167C138.992 230.249 139.451 229.332 140.368 228.873C141.285 228.415 142.203 227.956 143.12 227.956C144.037 227.497 144.955 227.497 145.872 227.497C147.248 227.497 148.165 227.497 149.083 227.956C150 227.956 150.459 228.415 151.376 228.873C152.293 229.332 152.752 230.249 153.211 231.167C153.669 232.543 153.669 233.46 153.669 235.295C153.669 235.753 153.669 236.212 153.669 237.129C153.669 237.588 153.669 238.047 153.669 238.505H141.285C141.285 239.423 141.285 240.34 141.744 241.257C141.744 241.716 142.203 242.633 143.12 242.633C143.579 243.092 144.037 243.551 144.496 243.551C144.955 244.009 145.872 244.009 146.331 244.009C147.707 244.009 148.624 244.009 149.541 244.009C150.459 243.551 151.376 243.551 152.293 243.551L153.211 245.844C152.293 246.303 151.376 246.761 150 246.761C149.083 247.22 147.707 247.22 146.331 247.22ZM145.872 230.249C145.413 230.249 144.955 230.249 144.037 230.708C143.579 230.708 143.12 230.708 142.661 231.167C142.203 231.625 141.744 232.084 141.744 233.001C141.285 233.46 141.285 234.377 141.285 235.753H150V235.295C150 235.295 150 234.836 150 234.377C150 233.919 150 233.001 150 232.543C149.541 232.084 149.083 231.625 148.624 231.167C148.624 231.167 148.165 230.708 147.248 230.708C146.789 230.249 146.331 230.249 145.872 230.249Z" fill="#FEFEFE"/>
<path d="M172.016 243.092C172.016 243.551 172.016 244.009 172.016 244.009H172.475C172.933 244.009 172.933 244.009 173.392 244.009C173.392 244.009 173.392 244.009 173.851 244.009L174.309 246.303C173.851 246.303 173.392 246.761 172.933 246.761C172.933 246.761 172.475 246.761 172.016 246.761C171.557 246.761 171.099 246.761 170.64 246.761C170.64 246.761 170.181 246.761 170.181 246.303C169.723 246.303 169.723 246.303 169.723 245.844C169.264 245.844 169.264 245.385 169.264 245.385C168.805 245.385 168.347 245.844 167.888 245.844C167.429 246.303 167.429 246.303 166.971 246.761C166.512 246.761 166.053 246.761 165.595 246.761C164.677 247.22 164.219 247.22 163.301 247.22H162.843C161.008 247.22 159.173 246.303 158.256 245.385C157.339 244.468 156.421 243.092 156.421 240.799V240.34C156.421 239.423 156.88 238.505 157.339 238.047C157.339 237.129 158.256 236.671 158.715 236.212C159.632 235.753 160.549 235.295 161.467 235.295C162.384 234.836 163.301 234.836 164.677 234.836C165.136 234.836 165.595 234.836 166.512 234.836C166.971 234.836 167.429 234.836 167.888 234.836C167.888 234.377 167.888 233.46 167.888 233.001C167.888 232.543 167.429 232.084 167.429 231.625C166.971 231.167 166.971 231.167 166.512 230.708C166.053 230.708 165.136 230.708 164.677 230.708C164.219 230.708 163.76 230.708 163.76 230.708C163.301 230.708 163.301 230.708 162.843 230.708H162.384C161.925 230.708 161.925 230.708 161.467 230.708V232.084H158.256L157.797 228.415C158.256 228.415 158.715 228.415 159.173 228.415C159.632 227.956 160.549 227.956 161.008 227.956C161.467 227.956 162.384 227.497 163.301 227.497C163.76 227.497 164.677 227.497 165.136 227.497C166.971 227.497 167.888 227.497 168.805 228.415C169.723 228.873 170.181 229.332 170.64 230.249C171.099 231.167 171.557 232.084 171.557 232.543C171.557 233.46 171.557 234.377 171.557 235.295V237.129C171.557 238.047 171.557 238.964 171.557 240.34C171.557 241.257 171.557 242.175 172.016 243.092ZM167.888 237.588C167.888 237.588 167.429 237.588 166.971 237.588C166.512 237.588 166.053 237.588 165.595 237.588C163.76 237.588 162.384 237.588 161.467 238.047C160.549 238.505 160.091 239.423 160.091 240.34V240.799C160.091 242.175 160.549 243.092 161.467 243.551C161.925 244.009 162.843 244.009 164.219 244.009C164.677 244.009 165.136 244.009 165.595 244.009C166.053 244.009 166.512 243.551 166.512 243.551C166.971 243.092 167.429 243.092 167.429 242.633C167.888 242.175 167.888 241.716 167.888 241.257V237.588Z" fill="#FEFEFE"/>
<path d="M186.234 237.588C186.234 237.588 186.234 237.588 185.776 237.588C185.776 237.588 185.776 237.588 185.317 237.588H182.565V244.009H183.941V246.761H177.061V244.009H178.437V225.204H176.144V222.452H185.776C187.152 222.452 188.528 222.452 189.904 222.452C190.821 222.911 192.197 222.911 193.114 223.369C194.032 224.287 194.949 224.745 195.408 225.663C195.866 226.58 196.325 227.956 196.325 229.332V230.708C196.325 231.625 195.866 232.543 195.866 233.46C195.408 233.919 194.949 234.377 194.49 234.836C194.032 235.753 193.573 235.753 193.114 236.212C192.197 236.671 191.28 236.671 190.821 237.129L194.49 242.175C195.408 243.092 195.866 244.009 196.784 244.468C197.242 244.927 197.701 244.927 198.16 245.385L196.784 247.22H196.325H195.866C195.408 247.22 194.949 247.22 194.49 246.761C194.032 246.761 193.573 246.303 193.114 245.844C192.656 245.385 191.738 244.927 191.28 244.009L186.234 237.588ZM192.197 230.249C192.197 228.873 192.197 228.415 191.738 227.497C191.28 227.039 190.821 226.58 190.362 226.121C189.904 225.663 188.986 225.663 188.069 225.204C187.61 225.204 186.693 225.204 185.776 225.204H182.565V234.836H185.776C186.234 234.836 187.152 234.377 188.069 234.377C188.528 234.377 189.445 234.377 189.904 233.919C190.821 233.46 191.28 233.001 191.738 232.543C191.738 232.084 192.197 231.167 192.197 230.249Z" fill="#FEFEFE"/>
<path fill-rule="evenodd" clip-rule="evenodd" d="M84.411 231.167L87.163 234.836L84.411 238.047L53.6805 234.836L84.411 231.167Z" fill="#FEFEFE"/>
<path fill-rule="evenodd" clip-rule="evenodd" d="M216.048 231.167L212.837 234.836L216.048 238.047L246.319 234.836L216.048 231.167Z" fill="#FEFEFE"/>
</g>
<defs>
<clipPath id="clip0_72_8">
<rect width="299.986" height="247.22" fill="white" transform="translate(0.00680542)"/>
</clipPath>
</defs>
</svg>
